.
 
http://www.scenetime.com    -   SceneTime [ We been having it ] !!!


How come you press harder on a remote control when you know the battery is dead? so you better seed to get speed ;)

        Seed back for speed


...................................NFO:.................................................[img]http://www.movienewz.com/wp-content/gallery/source-code-posters/source_code_movie_poster_02.jpg[/img]
[img]http://leetleech.org/images/67228419401676786408.png[/img]
[img]http://leetleech.org/images/14204713536914960029.png[/img]
[img]http://leetleech.org/images/03797376193846513467.png[/img]
[img]http://leetleech.org/images/05198650805876306752.png[/img]
[img]http://leetleech.org/images/60412206087389062243.png[/img]
[img]http://leetleech.org/images/17558383522156567903.png[/img]
General
Complete name                    : C:\Users\coop\Desktop\Source.Code.Dvd.Rip.Ac3.5.1.Xvid.TCM\S.C.TCM.avi
Format                           : AVI
Format/Info                      : Audio Video Interleave
File size                        : 1.47 GiB
Duration                         : 1h 33mn
Overall bit rate                 : 2 253 Kbps
Movie name                       : S.C.TCM
Encoded by                       : Cooperman
Writing application              : VirtualDub build 32842/releaseVirtualDubMod 1.5
Copyright                        : TCM

Video
ID                               : 0
Format                           : MPEG-4 Visual
Format profile                   : Advanced Simple@L5
Format settings, BVOP            : No
Format settings, QPel            : No
Format settings, GMC             : No warppoints
Format settings, Matrix          : Custom
Codec ID                         : XVID
Codec ID/Hint                    : XviD
Duration                         : 1h 33mn
Bit rate                         : 1 795 Kbps
Width                            : 704 pixels
Height                           : 400 pixels
Display aspect ratio             : 16:9
Frame rate                       : 23.976 fps
Color space                      : YUV
Chroma subsampling               : 4:2:0
Bit depth                        : 8 bits
Scan type                        : Progressive
Compression mode                 : Lossy
Bits/(Pixel*Frame)               : 0.266
Stream size                      : 1.17 GiB (80%)
Writing library                  : XviD 64

Audio
ID                               : 1
Format                           : AC-3
Format/Info                      : Audio Coding 3
Mode extension                   : CM (complete main)
Codec ID                         : 2000
Duration                         : 1h 33mn
Bit rate mode                    : Constant
Bit rate                         : 448 Kbps
Channel(s)                       : 6 channels
Channel positions                : Front: L C R, Side: L R, LFE
Sampling rate                    : 48.0 KHz
Bit depth                        : 16 bits
Compression mode                 : Lossy
Delay relative to video          : 700ms
Stream size                      : 299 MiB (20%)
Alignment                        : Split accross interleaves
Interleave, duration             : 42 ms (1.00 video frame)
Interleave, preload duration     : 500 ms
Subs                             : No
Sample                           : Yes 
http://www.imdb.com/title/tt0945513/

Source file : SOURCE_CODE_R1_DVD_9_NO_GRP
THAKS WHO EVER YOU ARE :)
107x14mb rars[main.movie.avi]
sample[avi]
snaps.n.thumbs
sfv
nfo
Enjoy the movie!!

t.c.m@hushmail.com
GREATINGS TO ALL THE P2P PLACES I LURK AT!!
AND A FOOK YOU TO ALL RETAGERS!!